<svg xmlns="http://www.w3.org/2000/svg" xmlns:xlink="http://www.w3.org/1999/xlink" id="svg" width="400" height="400" viewBox="0, 0, 400,400 undefined"><g id="svgg"><path id="path0" d="M148.444 10.633 C 103.818 12.345,45.064 19.637,40.889 23.982 C 40.644 24.236,39.662 24.877,38.707 25.405 C 37.751 25.933,35.751 27.870,34.262 29.709 L 31.556 33.053 31.556 120.304 C 31.556 276.040,32.055 358.381,33.028 363.097 C 35.693 376.017,46.193 381.424,73.778 384.082 C 78.911 384.576,86.311 385.343,90.222 385.786 C 116.323 388.741,276.137 388.763,294.667 385.814 C 297.600 385.348,305.800 384.566,312.889 384.076 C 337.388 382.386,350.396 378.521,355.000 371.564 C 360.197 363.711,360.183 363.885,361.003 298.667 C 361.418 265.667,362.110 213.267,362.540 182.222 C 363.115 140.792,363.058 125.604,362.328 125.125 C 361.626 124.664,361.660 124.468,362.444 124.458 C 363.169 124.449,363.556 123.034,363.556 120.392 C 363.556 117.672,363.234 116.538,362.578 116.944 C 361.867 117.383,361.867 117.049,362.578 115.721 C 364.339 112.430,363.897 40.030,362.087 35.351 C 359.669 29.100,348.682 21.333,342.260 21.333 C 341.226 21.333,337.095 20.556,333.079 19.605 C 314.499 15.206,302.005 13.579,271.111 11.535 C 253.611 10.378,170.963 9.770,148.444 10.633 M236.889 14.232 C 280.572 15.689,305.512 18.257,331.563 23.978 C 353.035 28.693,356.089 30.566,358.282 40.366 C 360.420 49.917,357.945 337.683,355.598 352.444 C 352.341 372.934,349.482 374.841,316.955 378.229 C 305.674 379.404,292.919 380.768,288.611 381.260 C 263.721 384.103,147.519 384.726,104.889 382.246 C 52.281 379.184,40.022 375.671,36.450 362.634 C 34.879 356.898,35.170 37.310,36.750 33.528 C 39.318 27.383,47.851 24.231,68.444 21.819 C 75.044 21.046,87.044 19.646,95.111 18.708 C 112.688 16.663,137.418 15.229,171.111 14.300 C 207.547 13.295,208.781 13.294,236.889 14.232 M147.111 23.071 C 135.010 24.111,144.858 24.951,166.149 24.695 C 181.829 24.506,187.055 24.170,187.334 23.333 C 187.729 22.146,159.979 21.965,147.111 23.071 M126.222 24.000 C 125.247 24.630,125.919 24.865,128.719 24.875 C 131.049 24.884,132.334 24.541,132.000 24.000 C 131.303 22.872,127.967 22.872,126.222 24.000 M95.556 24.980 C 62.941 27.996,52.727 29.619,50.222 32.182 C 49.165 33.263,55.048 32.690,70.667 30.189 C 76.533 29.249,87.133 28.074,94.222 27.576 C 112.531 26.291,117.333 25.715,117.333 24.802 C 117.333 23.854,106.799 23.940,95.556 24.980 M272.133 24.788 C 270.548 25.792,275.510 26.435,290.222 27.131 C 304.618 27.813,315.306 29.011,322.222 30.717 C 325.156 31.440,328.756 32.185,330.222 32.370 C 331.689 32.556,334.789 32.994,337.111 33.344 C 342.848 34.208,342.570 32.623,336.667 30.809 C 321.432 26.128,276.616 21.947,272.133 24.788 M41.443 38.702 C 40.464 41.252,40.850 45.832,42.194 47.608 C 43.566 49.422,43.630 49.135,43.937 39.852 C 44.013 37.518,42.215 36.689,41.443 38.702 M349.853 43.874 C 348.029 50.149,347.815 51.977,348.889 52.112 C 349.795 52.227,351.312 47.948,352.377 42.270 C 353.307 37.310,351.411 38.515,349.853 43.874 M87.125 49.822 C 87.139 57.549,88.198 61.502,89.408 58.347 C 90.252 56.149,89.187 44.387,88.040 43.240 C 87.394 42.594,87.115 44.598,87.125 49.822 M98.357 53.111 C 96.829 69.291,98.161 117.952,99.848 107.556 C 100.607 102.876,101.294 59.036,100.708 52.667 C 100.042 45.419,99.066 45.603,98.357 53.111 M42.541 61.973 C 41.988 69.810,43.283 99.639,44.217 100.573 C 45.865 102.220,46.204 95.931,45.429 78.123 C 44.673 60.738,43.207 52.541,42.541 61.973 M348.989 60.363 C 348.140 62.776,347.445 99.760,348.189 102.954 C 349.361 107.988,350.157 102.314,350.473 86.667 C 350.855 67.780,350.237 56.817,348.989 60.363 M87.750 61.880 C 86.852 62.778,86.954 65.576,87.907 66.165 C 88.345 66.435,88.889 66.159,89.117 65.550 C 89.673 64.068,88.557 61.073,87.750 61.880 M201.333 74.755 C 198.889 75.119,191.089 77.606,184.000 80.281 C 163.912 87.862,146.885 94.166,139.111 96.902 C 135.200 98.278,127.400 101.091,121.778 103.154 C 116.156 105.217,110.043 107.453,108.195 108.124 C 87.205 115.741,75.311 125.561,77.753 133.256 C 78.608 135.950,80.000 135.529,80.000 132.576 C 80.000 127.486,89.767 118.862,100.395 114.568 C 101.591 114.085,105.057 112.538,108.098 111.131 C 111.140 109.723,120.362 106.306,128.592 103.537 C 136.822 100.768,146.603 97.171,150.327 95.544 C 154.051 93.917,162.051 90.908,168.105 88.857 C 174.158 86.807,183.830 83.375,189.597 81.231 C 202.224 76.538,207.225 76.191,213.849 79.552 C 219.116 82.224,218.987 82.211,218.410 80.003 C 217.993 78.410,218.279 78.278,221.195 78.711 C 222.982 78.977,231.656 79.500,240.470 79.874 C 265.035 80.917,267.454 83.178,272.930 110.222 C 274.469 117.824,275.558 121.947,279.503 135.111 C 285.469 155.022,290.667 173.391,290.667 174.566 C 290.667 175.847,288.311 176.000,268.641 176.000 L 246.615 176.000 244.615 168.667 C 239.625 150.381,235.727 132.112,236.429 130.310 C 239.967 121.237,246.167 117.645,256.104 118.913 C 267.048 120.311,272.050 118.481,262.518 116.567 C 249.854 114.024,241.848 116.135,237.369 123.198 C 235.704 125.823,234.561 126.918,234.302 126.136 C 234.074 125.450,232.543 119.862,230.899 113.718 L 227.910 102.547 238.122 98.996 C 254.171 93.416,252.907 91.149,236.681 96.410 C 231.462 98.103,227.110 99.403,227.011 99.299 C 226.912 99.196,225.749 96.711,224.426 93.778 C 221.622 87.559,220.681 88.380,222.524 95.437 L 223.810 100.363 217.905 102.291 C 207.782 105.598,208.605 106.825,219.393 104.511 L 225.007 103.307 225.920 105.653 C 226.421 106.944,228.226 113.360,229.931 119.911 L 233.030 131.821 230.329 137.688 C 226.780 145.396,224.796 151.111,225.669 151.111 C 226.054 151.111,228.013 147.616,230.020 143.344 C 232.224 138.655,233.863 136.100,234.155 136.899 C 234.422 137.627,236.654 146.593,239.117 156.824 C 243.623 175.544,243.689 176.547,240.444 176.980 C 239.956 177.046,240.750 177.355,242.211 177.667 C 244.594 178.177,245.022 178.815,246.392 183.892 C 247.232 187.003,248.137 189.767,248.404 190.033 C 249.673 191.302,249.749 189.055,248.606 184.106 L 247.349 178.667 269.819 178.667 L 292.289 178.667 294.523 188.222 C 295.752 193.478,297.016 199.578,297.332 201.778 C 298.121 207.260,298.644 208.889,299.615 208.889 C 301.028 208.889,300.531 201.571,298.599 193.931 C 296.844 186.991,296.826 186.446,298.227 182.777 L 299.701 178.919 306.961 178.354 C 323.770 177.045,332.633 177.550,331.959 179.778 C 323.980 206.155,318.563 213.732,306.864 214.880 C 301.035 215.453,300.976 215.483,304.444 216.137 C 317.430 218.583,323.302 213.101,331.498 190.877 L 336.329 177.778 342.464 177.778 L 348.600 177.778 348.064 227.333 C 347.750 256.275,347.854 276.149,348.313 275.111 C 350.536 270.082,351.940 113.542,349.742 115.739 C 349.580 115.901,349.172 129.026,348.835 144.906 C 348.498 160.785,348.172 173.821,348.111 173.875 C 348.050 173.928,346.191 174.208,343.980 174.497 C 338.352 175.232,337.564 174.536,339.110 170.193 C 343.262 158.536,339.604 151.133,322.211 135.999 C 320.661 134.650,310.134 128.489,303.007 124.760 C 299.631 122.994,287.376 120.000,283.522 120.000 C 279.953 120.000,278.732 119.021,277.976 115.556 C 271.260 84.766,265.733 77.848,247.089 76.890 C 237.788 76.413,213.485 74.810,208.444 74.342 C 206.978 74.205,203.778 74.392,201.333 74.755 M192.281 110.647 C 185.610 113.215,182.813 114.665,183.399 115.251 C 183.937 115.789,200.109 110.358,201.289 109.243 C 202.895 107.724,197.817 108.516,192.281 110.647 M44.931 166.431 C 45.140 203.606,45.528 219.999,46.225 221.097 C 47.340 222.856,46.613 143.278,45.338 124.000 C 44.919 117.676,44.754 134.949,44.931 166.431 M160.000 117.736 C 160.000 118.579,166.316 121.091,166.919 120.488 C 167.854 119.554,164.428 117.333,162.052 117.333 C 160.924 117.333,160.000 117.515,160.000 117.736 M130.667 120.461 C 108.106 123.172,100.060 123.622,99.023 122.229 C 97.881 120.695,96.793 121.383,97.490 123.198 C 97.754 123.887,97.429 124.451,96.762 124.458 C 95.873 124.468,95.835 124.649,96.616 125.146 C 97.200 125.517,97.800 128.211,97.950 131.132 C 98.309 138.132,99.928 137.961,100.265 130.889 C 100.435 127.305,100.909 125.331,101.598 125.328 C 115.147 125.256,143.111 121.627,143.111 119.940 C 143.111 118.977,142.958 118.983,130.667 120.461 M290.118 124.423 C 310.040 128.522,315.178 135.986,308.180 150.667 C 305.542 156.202,302.783 163.399,300.855 169.778 C 298.111 178.852,294.708 177.804,291.903 167.022 C 290.835 162.915,288.931 155.956,287.672 151.556 C 286.413 147.156,284.406 139.756,283.213 135.111 C 282.019 130.467,280.762 125.767,280.418 124.667 C 279.657 122.232,279.492 122.237,290.118 124.423 M166.522 131.944 C 166.792 132.647,167.440 134.809,167.962 136.749 C 168.484 138.688,169.907 142.525,171.123 145.274 C 172.338 148.023,173.333 150.422,173.333 150.604 C 173.333 150.786,167.741 150.992,160.906 151.061 C 148.322 151.188,142.546 152.205,138.560 154.997 C 135.959 156.819,136.724 156.828,148.077 155.115 C 157.036 153.763,172.232 153.437,174.045 154.557 C 174.855 155.058,177.778 160.901,177.778 162.020 C 177.778 162.184,176.078 162.417,174.000 162.536 C 171.922 162.655,166.622 164.023,162.222 165.576 C 153.661 168.597,146.936 169.057,126.462 168.024 C 117.192 167.556,117.186 167.501,125.935 163.186 C 132.592 159.903,133.993 158.735,132.431 157.769 C 131.493 157.190,119.695 162.497,115.556 165.360 C 114.333 166.205,110.633 168.301,107.333 170.018 L 101.333 173.138 101.198 169.014 C 101.123 166.745,100.970 164.489,100.856 164.000 C 100.742 163.511,100.603 161.531,100.547 159.600 C 100.349 152.821,98.650 157.743,98.088 166.724 C 97.314 179.077,95.290 181.361,92.820 172.667 C 88.118 156.111,82.089 141.333,80.037 141.333 C 79.174 141.333,81.000 148.376,83.263 153.778 C 84.552 156.855,90.788 175.735,91.001 177.207 C 91.061 177.626,83.911 177.920,75.111 177.859 C 58.875 177.748,47.464 178.426,48.476 179.441 C 48.782 179.749,58.284 180.200,69.590 180.444 L 90.147 180.889 84.585 184.430 C 77.734 188.792,78.894 189.546,86.779 185.856 C 90.005 184.346,92.736 183.111,92.848 183.111 C 92.960 183.111,93.548 184.767,94.155 186.791 C 95.482 191.222,94.760 191.966,89.111 191.986 C 87.033 191.994,85.333 192.400,85.333 192.889 C 85.333 193.382,87.692 193.778,90.632 193.778 L 95.931 193.778 97.299 198.384 C 98.328 201.847,98.667 207.325,98.667 220.475 C 98.667 239.238,99.326 248.889,100.607 248.889 C 101.061 248.889,101.294 241.405,101.148 231.555 C 101.005 222.021,101.089 214.228,101.333 214.238 C 101.578 214.248,103.355 219.262,105.282 225.381 C 109.770 239.626,114.763 251.751,116.357 252.274 C 117.236 252.562,117.447 252.189,117.073 251.008 C 116.781 250.087,113.128 239.333,108.956 227.111 C 102.733 208.881,101.366 203.915,101.352 199.468 L 101.333 194.048 110.889 193.460 C 116.144 193.137,128.844 192.660,139.111 192.401 C 161.807 191.829,168.889 191.264,168.889 190.027 C 168.889 189.375,163.606 189.262,151.778 189.659 C 142.367 189.975,127.167 190.487,118.000 190.797 L 101.333 191.360 101.333 184.227 C 101.333 172.997,103.906 172.000,132.889 172.000 L 153.333 172.000 162.841 168.667 C 176.160 163.997,178.671 164.119,181.159 169.556 L 183.091 173.778 182.650 170.025 C 182.129 165.592,182.250 165.602,191.111 170.743 C 199.895 175.840,219.945 179.854,221.781 176.883 C 222.855 175.145,221.450 174.730,213.509 174.439 C 203.927 174.087,201.476 173.355,192.000 168.016 C 187.844 165.674,183.605 163.505,182.580 163.196 C 181.447 162.854,180.291 161.332,179.633 159.316 C 179.038 157.492,178.361 155.551,178.128 155.003 C 177.835 154.311,180.369 153.956,186.408 153.844 C 200.976 153.575,199.618 150.716,184.907 150.685 L 176.481 150.667 173.212 142.564 C 171.414 138.108,169.409 133.608,168.757 132.564 C 167.427 130.434,165.766 129.973,166.522 131.944 M318.938 137.700 C 335.765 149.258,340.535 158.883,335.571 171.264 L 334.085 174.973 317.720 175.071 L 301.355 175.170 302.251 172.696 C 302.744 171.335,303.502 169.422,303.935 168.444 C 310.438 153.756,313.273 144.738,313.227 138.889 C 313.183 133.319,312.705 133.418,318.938 137.700 M268.055 155.445 C 263.883 163.754,262.598 168.894,265.393 166.099 C 266.818 164.675,273.094 148.353,272.461 147.720 C 272.268 147.528,270.286 151.004,268.055 155.445 M227.136 175.959 C 226.816 176.477,227.141 177.127,227.859 177.402 C 229.825 178.157,235.111 177.459,235.111 176.444 C 235.111 175.227,227.861 174.786,227.136 175.959 M297.778 179.483 C 297.778 181.219,296.665 183.078,295.907 182.609 C 294.587 181.793,295.013 178.667,296.444 178.667 C 297.178 178.667,297.778 179.034,297.778 179.483 M98.667 185.333 C 98.667 188.511,98.497 191.111,98.289 191.111 C 97.189 191.111,95.270 181.768,96.152 180.705 C 98.023 178.451,98.667 179.636,98.667 185.333 M72.936 197.111 C 71.858 200.992,71.727 204.764,72.639 205.676 C 73.260 206.297,75.442 198.458,75.518 195.333 C 75.586 192.531,73.882 193.704,72.936 197.111 M251.183 195.439 C 250.843 195.990,251.050 200.445,251.643 205.339 C 253.677 222.123,250.687 226.194,231.694 232.504 C 226.846 234.114,222.483 235.828,221.999 236.313 C 220.524 237.787,228.319 236.447,235.111 234.057 C 238.533 232.854,244.133 231.121,247.556 230.208 C 256.266 227.883,291.589 215.434,292.739 214.283 C 295.386 211.637,288.026 213.624,265.778 221.565 C 250.711 226.943,248.862 227.374,250.998 225.014 C 254.846 220.761,256.009 212.306,254.139 202.163 C 253.006 196.019,252.099 193.956,251.183 195.439 M263.111 201.280 C 263.111 202.003,278.322 206.419,278.882 205.858 C 279.904 204.837,277.820 203.704,272.316 202.291 C 266.981 200.921,263.111 200.496,263.111 201.280 M149.029 216.499 C 148.211 229.875,148.300 246.222,149.192 246.222 C 150.200 246.222,151.322 209.996,150.367 208.290 C 149.896 207.449,149.394 210.530,149.029 216.499 M228.444 210.986 C 221.188 214.064,214.220 217.676,215.419 217.738 C 216.702 217.806,236.789 210.385,238.642 209.159 C 242.177 206.822,235.399 208.036,228.444 210.986 M189.619 217.803 C 191.260 222.806,192.889 224.772,192.889 221.749 C 192.889 219.702,190.674 214.813,189.188 213.581 C 188.156 212.725,188.247 213.619,189.619 217.803 M73.036 240.623 C 73.243 259.316,73.644 267.778,74.356 268.490 C 76.157 270.290,76.666 266.162,75.935 255.680 C 75.555 250.234,75.214 239.098,75.178 230.935 C 75.128 219.802,74.815 215.803,73.925 214.935 C 72.937 213.971,72.788 218.252,73.036 240.623 M299.556 218.607 C 300.289 219.033,305.489 220.873,311.111 222.696 C 327.783 228.101,334.768 232.879,336.641 240.159 C 338.409 247.030,337.320 284.011,335.246 287.526 C 332.855 291.579,332.780 292.803,334.995 291.618 C 338.983 289.483,339.482 286.181,339.438 262.210 C 339.385 233.127,338.631 231.189,324.861 224.745 C 316.963 221.049,294.296 215.551,299.556 218.607 M46.000 231.622 C 45.057 232.576,45.166 283.556,46.111 283.556 C 47.585 283.556,48.000 277.947,47.912 259.222 C 47.822 239.892,47.167 230.441,46.000 231.622 M161.826 234.852 C 158.186 236.886,155.672 238.705,156.239 238.894 C 157.653 239.366,169.198 233.601,169.601 232.222 C 170.109 230.485,168.924 230.886,161.826 234.852 M259.556 233.322 C 259.556 235.304,295.891 245.333,303.070 245.333 C 306.695 245.333,307.766 255.551,305.761 270.999 C 304.913 277.528,305.293 281.778,306.723 281.778 C 308.064 281.778,308.645 275.822,308.768 260.836 L 308.889 246.146 311.111 245.660 C 318.817 243.974,323.030 240.818,315.778 242.164 C 306.411 243.902,305.349 243.786,283.934 238.706 C 272.237 235.931,261.967 233.460,261.111 233.215 C 260.256 232.970,259.556 233.018,259.556 233.322 M205.333 240.612 C 204.600 240.872,200.115 242.841,195.367 244.987 C 184.882 249.726,185.439 249.719,186.060 245.111 L 186.569 241.333 185.269 244.444 C 184.554 246.156,183.640 248.144,183.237 248.863 C 182.277 250.578,155.955 259.202,147.835 260.462 C 141.219 261.488,135.305 260.866,126.514 258.221 C 121.342 256.664,120.775 257.014,124.620 259.387 C 134.282 265.351,153.482 263.604,175.932 254.716 C 182.993 251.921,182.628 251.136,179.864 263.173 C 174.703 285.646,176.586 298.836,185.589 303.270 C 193.451 307.142,311.111 305.218,311.111 301.218 C 311.111 300.741,305.679 300.592,298.000 300.858 C 215.844 303.708,189.953 303.702,186.117 300.834 C 179.149 295.625,177.862 283.639,182.111 263.556 C 184.841 250.653,183.935 251.637,198.155 246.148 C 205.015 243.500,210.636 241.033,210.647 240.667 C 210.669 239.921,207.382 239.887,205.333 240.612 M235.722 255.111 C 235.684 259.856,235.847 260.534,236.634 258.903 C 237.304 257.515,237.318 255.777,236.681 253.126 L 235.769 249.333 235.722 255.111 M98.667 271.503 C 98.667 273.732,99.067 275.556,99.556 275.556 C 100.044 275.556,100.444 273.979,100.444 272.052 C 100.444 270.126,100.044 268.302,99.556 268.000 C 99.013 267.664,98.667 269.028,98.667 271.503 M75.556 273.725 C 75.556 274.732,75.956 275.556,76.444 275.556 C 76.933 275.556,77.333 274.979,77.333 274.275 C 77.333 273.570,76.933 272.747,76.444 272.444 C 75.956 272.142,75.556 272.719,75.556 273.725 M148.000 276.444 C 147.698 276.933,148.274 277.333,149.281 277.333 C 150.288 277.333,151.111 276.933,151.111 276.444 C 151.111 275.956,150.535 275.556,149.830 275.556 C 149.126 275.556,148.302 275.956,148.000 276.444 M112.889 285.778 C 106.632 287.951,102.797 289.668,104.110 289.708 C 106.774 289.788,127.121 283.828,128.400 282.593 C 130.352 280.709,123.332 282.150,112.889 285.778 M76.743 286.363 C 77.400 294.048,82.677 298.742,93.051 300.868 C 101.152 302.528,179.652 303.225,180.188 301.641 C 180.446 300.879,169.498 300.516,137.601 300.227 C 84.417 299.746,83.303 299.495,78.253 286.879 L 76.389 282.222 76.743 286.363 M346.370 284.148 C 346.044 284.474,345.778 285.707,345.778 286.889 C 345.778 289.812,347.919 288.993,348.281 285.931 C 348.548 283.678,347.665 282.854,346.370 284.148 M304.606 287.690 C 303.720 288.576,303.865 291.556,304.794 291.556 C 305.230 291.556,305.793 291.019,306.045 290.364 C 306.594 288.932,305.464 286.832,304.606 287.690 M220.000 290.607 C 217.353 291.222,217.361 291.232,221.078 291.908 C 224.933 292.610,227.084 292.061,226.184 290.605 C 225.615 289.684,223.972 289.685,220.000 290.607 M237.333 291.438 C 235.176 292.088,235.198 292.125,238.111 292.720 C 242.524 293.622,286.222 293.468,286.222 292.551 C 286.222 291.036,242.014 290.031,237.333 291.438 M343.176 299.167 C 339.658 314.890,334.055 316.367,274.222 317.345 C 207.618 318.435,176.671 319.283,174.667 320.074 C 171.173 321.454,303.651 321.334,316.538 319.946 C 334.693 317.992,344.644 310.744,346.360 298.225 C 347.213 292.000,344.608 292.771,343.176 299.167 M49.126 298.989 C 50.164 308.827,59.920 315.890,76.370 318.710 C 85.319 320.245,162.662 321.186,164.073 319.778 C 165.806 318.048,160.567 317.742,120.594 317.237 C 63.065 316.511,59.862 315.712,51.507 300.000 L 48.671 294.667 49.126 298.989 M50.218 335.118 C 49.502 336.277,50.522 341.139,51.624 341.820 C 52.075 342.099,52.444 340.727,52.444 338.772 C 52.444 335.229,51.305 333.359,50.218 335.118 M52.867 347.592 C 52.085 348.856,53.130 352.889,54.239 352.889 C 55.349 352.889,55.388 347.832,54.284 347.149 C 53.829 346.868,53.191 347.067,52.867 347.592 M181.542 349.962 C 177.794 350.683,180.518 352.000,185.758 352.000 C 191.462 352.000,194.036 351.360,193.276 350.129 C 192.785 349.335,185.356 349.229,181.542 349.962 M128.229 351.079 C 116.829 351.428,109.871 351.996,109.239 352.627 C 107.429 354.438,117.952 355.008,132.889 353.909 C 140.711 353.334,150.561 352.869,154.778 352.876 C 163.176 352.890,168.000 352.206,168.000 351.000 C 168.000 350.171,157.217 350.192,128.229 351.079 M259.709 351.811 C 258.021 352.989,263.506 353.756,273.711 353.768 C 278.319 353.773,290.259 354.618,300.244 355.645 C 317.127 357.381,321.996 357.255,319.880 355.139 C 317.868 353.128,262.232 350.050,259.709 351.811 M345.411 355.402 C 341.741 362.645,335.613 366.240,323.911 368.014 C 311.414 369.908,310.383 372.301,322.498 371.291 C 336.110 370.157,347.039 362.995,348.882 354.000 C 349.769 349.677,347.937 350.416,345.411 355.402 M68.000 355.131 C 56.836 356.783,47.870 361.395,49.181 364.812 C 49.573 365.835,50.363 365.459,52.676 363.147 C 55.818 360.005,59.474 358.681,67.556 357.762 C 79.278 356.429,81.823 355.948,81.586 355.111 C 81.236 353.881,76.403 353.888,68.000 355.131 M300.885 371.562 C 300.190 372.687,302.664 373.695,304.444 373.012 C 305.178 372.730,305.778 372.088,305.778 371.583 C 305.778 370.402,301.613 370.384,300.885 371.562 " stroke="none" fill="#f49a73" fill-rule="evenodd"/></g></svg>